<svg data-v-423bf9ae="" xmlns="http://www.w3.org/2000/svg" viewBox="0 0 925.05494792519 163" class="iconAbove"><!----><!----><!----><g data-v-423bf9ae="" id="db650b2e-523b-4674-b680-a3f8d26b6bef" fill="black" transform="matrix(5.071851258406724,0,0,5.071851258406724,-7.0498730934734795,88.49450329328009)"><path d="M1.39 9.34L1.39 8.27L7.31 5.88L7.31 6.94L2.58 8.81L7.31 10.67L7.31 11.73L1.39 9.34ZM11.37 5.89L11.37 10.99L11.37 10.99Q11.37 11.83 11.51 12.35L11.51 12.35L11.51 12.35Q11.65 12.87 12.00 13.33L12.00 13.33L12.18 13.58L12.00 13.80L9.34 13.80L9.17 13.33L9.49 13.24L9.49 13.24Q10.02 13.09 10.21 12.84L10.21 12.84L10.21 12.84Q10.39 12.59 10.39 11.94L10.39 11.94L10.39 5.61L10.39 5.61Q10.39 4.97 10.21 4.72L10.21 4.72L10.21 4.72Q10.02 4.47 9.49 4.31L9.49 4.31L9.17 4.23L9.34 3.75L11.59 3.75L16.94 11.69L16.94 5.61L16.94 5.61Q16.94 4.97 16.76 4.72L16.76 4.72L16.76 4.72Q16.58 4.47 16.04 4.31L16.04 4.31L15.72 4.23L15.89 3.75L18.55 3.75L18.73 3.98L18.55 4.23L18.55 4.23Q18.20 4.69 18.06 5.21L18.06 5.21L18.06 5.21Q17.92 5.73 17.92 6.57L17.92 6.57L17.92 12.57L17.92 12.57Q17.92 12.84 17.96 13.01L17.96 13.01L17.96 13.01Q18.00 13.17 18.12 13.33L18.12 13.33L18.30 13.58L18.12 13.80L16.70 13.80L11.37 5.89ZM24.65 12.52L24.65 12.52Q24.08 13.33 23.48 13.66L23.48 13.66L23.48 13.66Q22.88 14 22.18 14L22.18 14L22.18 14Q21.50 14 20.93 13.62L20.93 13.62L20.93 13.62Q20.36 13.23 20.01 12.46L20.01 12.46L20.01 12.46Q19.67 11.69 19.67 10.60L19.67 10.60L19.67 10.60Q19.67 9.39 20.11 8.50L20.11 8.50L20.11 8.50Q20.55 7.62 21.37 7.14L21.37 7.14L21.37 7.14Q22.19 6.66 23.30 6.66L23.30 6.66L23.30 6.66Q23.84 6.66 24.84 6.85L24.84 6.85L24.84 6.85Q25.68 6.99 26.10 7.01L26.10 7.01L26.25 7.20L26.08 7.45L26.08 7.45Q25.98 7.59 25.94 7.71L25.94 7.71L25.94 7.71Q25.90 7.83 25.90 7.99L25.90 7.99L25.90 12.57L25.90 12.57Q25.90 13.01 26.32 13.01L26.32 13.01L26.32 13.01Q26.67 13.01 27.02 12.75L27.02 12.75L27.29 13.12L27.29 13.12Q26.92 13.52 26.50 13.76L26.50 13.76L26.50 13.76Q26.08 14 25.73 14L25.73 14L25.73 14Q25.16 14 24.91 13.65L24.91 13.65L24.91 13.65Q24.65 13.30 24.65 12.52L24.65 12.52ZM21.14 10.33L21.14 10.33Q21.14 11.66 21.60 12.29L21.60 12.29L21.60 12.29Q22.05 12.92 22.74 12.92L22.74 12.92L22.74 12.92Q23.30 12.92 23.79 12.61L23.79 12.61L23.79 12.61Q24.28 12.29 24.65 11.65L24.65 11.65L24.65 7.87L24.65 7.87Q24.01 7.43 23.28 7.43L23.28 7.43L23.28 7.43Q22.26 7.43 21.70 8.20L21.70 8.20L21.70 8.20Q21.14 8.96 21.14 10.33L21.14 10.33ZM29.01 4.37L29.01 4.37Q29.01 4.20 28.95 4.13L28.95 4.13L28.95 4.13Q28.88 4.06 28.73 4.06L28.73 4.06L28.11 4.06L27.99 3.70L27.99 3.70Q28.39 3.33 28.92 3.09L28.92 3.09L28.92 3.09Q29.44 2.86 29.83 2.86L29.83 2.86L29.83 2.86Q30.03 2.86 30.16 2.98L30.16 2.98L30.16 2.98Q30.28 3.11 30.28 3.30L30.28 3.30L30.28 8.75L30.28 8.75Q30.65 7.84 31.37 7.25L31.37 7.25L31.37 7.25Q32.10 6.66 32.90 6.66L32.90 6.66L32.90 6.66Q33.92 6.66 34.35 7.27L34.35 7.27L34.35 7.27Q34.78 7.87 34.78 9.21L34.78 9.21L34.78 12.60L34.78 12.60Q34.78 13.08 35.20 13.08L35.20 13.08L35.20 13.08Q35.55 13.08 35.90 12.78L35.90 12.78L36.16 13.15L36.16 13.15Q35.80 13.55 35.38 13.79L35.38 13.79L35.38 13.79Q34.96 14.03 34.59 14.03L34.59 14.03L34.59 14.03Q34.02 14.03 33.77 13.68L33.77 13.68L33.77 13.68Q33.52 13.33 33.52 12.54L33.52 12.54L33.52 9.21L33.52 9.21Q33.52 8.47 33.24 8.11L33.24 8.11L33.24 8.11Q32.97 7.76 32.31 7.76L32.31 7.76L32.31 7.76Q31.71 7.76 31.26 8.23L31.26 8.23L31.26 8.23Q30.80 8.71 30.54 9.58L30.54 9.58L30.54 9.58Q30.28 10.44 30.28 11.56L30.28 11.56L30.28 11.56Q30.28 12.22 30.38 12.61L30.38 12.61L30.38 12.61Q30.48 13.01 30.73 13.37L30.73 13.37L30.90 13.59L30.73 13.80L28.28 13.80L28.13 13.37L28.42 13.30L28.42 13.30Q28.77 13.22 28.89 13.00L28.89 13.00L28.89 13.00Q29.01 12.78 29.01 12.25L29.01 12.25L29.01 4.37ZM37.73 4.59L37.73 4.59Q37.73 4.33 38.03 4.00L38.03 4.00L38.03 4.00Q38.33 3.67 38.58 3.67L38.58 3.67L38.58 3.67Q38.85 3.67 39.16 3.99L39.16 3.99L39.16 3.99Q39.47 4.31 39.47 4.59L39.47 4.59L39.47 4.59Q39.47 4.86 39.16 5.18L39.16 5.18L39.16 5.18Q38.85 5.50 38.58 5.50L38.58 5.50L38.58 5.50Q38.35 5.50 38.04 5.18L38.04 5.18L38.04 5.18Q37.73 4.86 37.73 4.59L37.73 4.59ZM39.21 12.57L39.21 12.57Q39.21 13.05 39.63 13.05L39.63 13.05L39.63 13.05Q39.98 13.05 40.33 12.75L40.33 12.75L40.60 13.12L40.60 13.12Q40.24 13.52 39.82 13.76L39.82 13.76L39.82 13.76Q39.40 14 39.03 14L39.03 14L39.03 14Q38.46 14 38.21 13.65L38.21 13.65L38.21 13.65Q37.95 13.30 37.95 12.52L37.95 12.52L37.95 8.18L37.95 8.18Q37.95 8.01 37.89 7.94L37.89 7.94L37.89 7.94Q37.83 7.87 37.67 7.87L37.67 7.87L37.06 7.87L36.93 7.50L36.93 7.50Q37.34 7.14 37.86 6.90L37.86 6.90L37.86 6.90Q38.37 6.66 38.78 6.66L38.78 6.66L38.78 6.66Q38.98 6.66 39.10 6.79L39.10 6.79L39.10 6.79Q39.23 6.92 39.23 7.11L39.23 7.11L39.21 12.57ZM46.42 12.52L46.42 12.52Q45.85 13.33 45.25 13.66L45.25 13.66L45.25 13.66Q44.65 14 43.95 14L43.95 14L43.95 14Q43.27 14 42.70 13.62L42.70 13.62L42.70 13.62Q42.13 13.23 41.78 12.46L41.78 12.46L41.78 12.46Q41.44 11.69 41.44 10.60L41.44 10.60L41.44 10.60Q41.44 9.39 41.88 8.50L41.88 8.50L41.88 8.50Q42.32 7.62 43.14 7.14L43.14 7.14L43.14 7.14Q43.96 6.66 45.07 6.66L45.07 6.66L45.07 6.66Q45.61 6.66 46.61 6.85L46.61 6.85L46.61 6.85Q47.45 6.99 47.87 7.01L47.87 7.01L48.02 7.20L47.85 7.45L47.85 7.45Q47.75 7.59 47.71 7.71L47.71 7.71L47.71 7.71Q47.67 7.83 47.67 7.99L47.67 7.99L47.67 12.57L47.67 12.57Q47.67 13.01 48.09 13.01L48.09 13.01L48.09 13.01Q48.44 13.01 48.79 12.75L48.79 12.75L49.06 13.12L49.06 13.12Q48.69 13.52 48.27 13.76L48.27 13.76L48.27 13.76Q47.85 14 47.50 14L47.50 14L47.50 14Q46.93 14 46.68 13.65L46.68 13.65L46.68 13.65Q46.42 13.30 46.42 12.52L46.42 12.52ZM42.91 10.33L42.91 10.33Q42.91 11.66 43.37 12.29L43.37 12.29L43.37 12.29Q43.82 12.92 44.51 12.92L44.51 12.92L44.51 12.92Q45.07 12.92 45.56 12.61L45.56 12.61L45.56 12.61Q46.05 12.29 46.42 11.65L46.42 11.65L46.42 7.87L46.42 7.87Q45.78 7.43 45.05 7.43L45.05 7.43L45.05 7.43Q44.03 7.43 43.47 8.20L43.47 8.20L43.47 8.20Q42.91 8.96 42.91 10.33L42.91 10.33ZM55.79 5.89L55.79 10.99L55.79 10.99Q55.79 11.83 55.93 12.35L55.93 12.35L55.93 12.35Q56.07 12.87 56.42 13.33L56.42 13.33L56.60 13.58L56.42 13.80L53.76 13.80L53.59 13.33L53.91 13.24L53.91 13.24Q54.45 13.09 54.63 12.84L54.63 12.84L54.63 12.84Q54.81 12.59 54.81 11.94L54.81 11.94L54.81 5.61L54.81 5.61Q54.81 4.97 54.63 4.72L54.63 4.72L54.63 4.72Q54.45 4.47 53.91 4.31L53.91 4.31L53.59 4.23L53.76 3.75L56.01 3.75L61.36 11.69L61.36 5.61L61.36 5.61Q61.36 4.97 61.18 4.72L61.18 4.72L61.18 4.72Q61.00 4.47 60.47 4.31L60.47 4.31L60.14 4.23L60.31 3.75L62.97 3.75L63.15 3.98L62.97 4.23L62.97 4.23Q62.62 4.69 62.48 5.21L62.48 5.21L62.48 5.21Q62.34 5.73 62.34 6.57L62.34 6.57L62.34 12.57L62.34 12.57Q62.34 12.84 62.38 13.01L62.38 13.01L62.38 13.01Q62.43 13.17 62.54 13.33L62.54 13.33L62.72 13.58L62.54 13.80L61.12 13.80L55.79 5.89ZM64.65 10.33L64.65 10.33Q64.65 9.21 65.07 8.39L65.07 8.39L65.07 8.39Q65.48 7.56 66.26 7.11L66.26 7.11L66.26 7.11Q67.03 6.66 68.07 6.66L68.07 6.66L68.07 6.66Q69.10 6.66 69.87 7.11L69.87 7.11L69.87 7.11Q70.64 7.56 71.06 8.39L71.06 8.39L71.06 8.39Q71.48 9.21 71.48 10.33L71.48 10.33L71.48 10.33Q71.48 11.44 71.06 12.27L71.06 12.27L71.06 12.27Q70.64 13.10 69.87 13.55L69.87 13.55L69.87 13.55Q69.10 14 68.07 14L68.07 14L68.07 14Q67.03 14 66.26 13.55L66.26 13.55L66.26 13.55Q65.48 13.10 65.07 12.27L65.07 12.27L65.07 12.27Q64.65 11.44 64.65 10.33L64.65 10.33ZM70.01 10.37L70.01 10.37Q70.01 9.72 69.83 9.03L69.83 9.03L69.83 9.03Q69.65 8.34 69.22 7.87L69.22 7.87L69.22 7.87Q68.80 7.39 68.11 7.39L68.11 7.39L68.11 7.39Q67.52 7.39 67.07 7.76L67.07 7.76L67.07 7.76Q66.61 8.13 66.36 8.81L66.36 8.81L66.36 8.81Q66.11 9.48 66.11 10.35L66.11 10.35L66.11 10.35Q66.11 11.68 66.63 12.46L66.63 12.46L66.63 12.46Q67.14 13.24 68.03 13.24L68.03 13.24L68.03 13.24Q68.60 13.24 69.06 12.89L69.06 12.89L69.06 12.89Q69.51 12.53 69.76 11.88L69.76 11.88L69.76 11.88Q70.01 11.23 70.01 10.37L70.01 10.37ZM76.02 13.09L76.02 13.09Q76.47 13.09 76.82 12.61L76.82 12.61L76.82 12.61Q77.17 12.12 77.36 11.33L77.36 11.33L77.36 11.33Q77.55 10.54 77.55 9.67L77.55 9.67L77.55 9.67Q77.55 9.00 77.39 8.37L77.39 8.37L77.39 8.37Q77.24 7.74 76.93 7.25L76.93 7.25L76.79 7.03L76.96 6.85L78.60 6.66L78.60 6.66Q78.67 7.53 78.67 8.15L78.67 8.15L78.67 8.15Q78.67 8.79 78.60 9.52L78.60 9.52L78.89 11.48L78.89 11.48Q79.02 12.35 79.27 12.72L79.27 12.72L79.27 12.72Q79.52 13.09 80.01 13.09L80.01 13.09L80.01 13.09Q80.46 13.09 80.81 12.61L80.81 12.61L80.81 12.61Q81.16 12.12 81.35 11.33L81.35 11.33L81.35 11.33Q81.54 10.54 81.54 9.67L81.54 9.67L81.54 9.67Q81.54 9.00 81.38 8.37L81.38 8.37L81.38 8.37Q81.23 7.74 80.92 7.25L80.92 7.25L80.78 7.03L80.95 6.85L82.59 6.66L82.59 6.66Q82.66 7.53 82.66 8.15L82.66 8.15L82.66 8.15Q82.66 10.01 82.28 11.33L82.28 11.33L82.28 11.33Q81.90 12.66 81.27 13.33L81.27 13.33L81.27 13.33Q80.64 14 79.91 14L79.91 14L79.91 14Q79.10 14 78.65 13.60L78.65 13.60L78.65 13.60Q78.19 13.20 77.94 12.24L77.94 12.24L77.94 12.24Q77.56 13.10 77.02 13.55L77.02 13.55L77.02 13.55Q76.48 14 75.87 14L75.87 14L75.87 14Q75.14 14 74.70 13.73L74.70 13.73L74.70 13.73Q74.26 13.45 73.99 12.85L73.99 12.85L73.99 12.85Q73.72 12.24 73.57 11.14L73.57 11.14L73.14 8.18L73.14 8.18Q73.11 7.99 73.05 7.93L73.05 7.93L73.05 7.93Q73.00 7.87 72.86 7.87L72.86 7.87L72.24 7.87L72.11 7.50L72.11 7.50Q72.48 7.14 72.98 6.90L72.98 6.90L72.98 6.90Q73.49 6.66 73.88 6.66L73.88 6.66L73.88 6.66Q74.26 6.66 74.33 7.11L74.33 7.11L74.96 11.48L74.96 11.48Q75.08 12.35 75.32 12.72L75.32 12.72L75.32 12.72Q75.56 13.09 76.02 13.09L76.02 13.09ZM86.35 8.75L86.44 8.75L86.44 8.75Q86.67 7.81 87.17 7.24L87.17 7.24L87.17 7.24Q87.67 6.66 88.26 6.66L88.26 6.66L88.26 6.66Q88.84 6.66 89.23 7.05L89.23 7.05L89.23 7.05Q89.61 7.43 89.61 8.09L89.61 8.09L89.61 8.09Q89.61 8.62 89.22 8.99L89.22 8.99L89.22 8.99Q88.83 9.35 88.24 9.35L88.24 9.35L88.24 9.35Q87.98 9.35 87.98 9.20L87.98 9.20L87.98 9.20Q87.98 9.16 88.10 8.99L88.10 8.99L88.10 8.99Q88.21 8.82 88.29 8.64L88.29 8.64L88.29 8.64Q88.37 8.46 88.37 8.23L88.37 8.23L88.37 8.23Q88.37 7.98 88.24 7.83L88.24 7.83L88.24 7.83Q88.10 7.69 87.91 7.69L87.91 7.69L87.91 7.69Q87.57 7.69 87.21 8.09L87.21 8.09L87.21 8.09Q86.86 8.48 86.60 9.37L86.60 9.37L86.60 9.37Q86.35 10.26 86.35 11.62L86.35 11.62L86.35 11.62Q86.35 12.25 86.45 12.63L86.45 12.63L86.45 12.63Q86.55 13.02 86.80 13.37L86.80 13.37L86.97 13.59L86.80 13.80L84.35 13.80L84.20 13.37L84.49 13.30L84.49 13.30Q84.84 13.22 84.96 13.00L84.96 13.00L84.96 13.00Q85.08 12.78 85.08 12.25L85.08 12.25L85.08 8.32L85.08 8.32Q85.08 8.15 85.02 8.08L85.02 8.08L85.02 8.08Q84.95 8.01 84.80 8.01L84.80 8.01L84.18 8.01L84.06 7.64L84.06 7.64Q84.46 7.28 84.99 7.04L84.99 7.04L84.99 7.04Q85.51 6.80 85.90 6.80L85.90 6.80L85.90 6.80Q86.10 6.80 86.23 6.93L86.23 6.93L86.23 6.93Q86.35 7.06 86.35 7.25L86.35 7.25L86.35 8.75ZM96.24 12.75L96.24 12.75Q95.72 13.36 95.00 13.68L95.00 13.68L95.00 13.68Q94.29 14 93.46 14L93.46 14L93.46 14Q92.50 14 91.77 13.55L91.77 13.55L91.77 13.55Q91.04 13.10 90.64 12.29L90.64 12.29L90.64 12.29Q90.24 11.48 90.24 10.42L90.24 10.42L90.24 10.42Q90.24 9.30 90.69 8.45L90.69 8.45L90.69 8.45Q91.14 7.60 91.96 7.13L91.96 7.13L91.96 7.13Q92.78 6.66 93.87 6.66L93.87 6.66L93.87 6.66Q94.64 6.66 95.18 6.95L95.18 6.95L95.18 6.95Q95.72 7.24 95.98 7.71L95.98 7.71L95.98 7.71Q96.25 8.18 96.25 8.72L96.25 8.72L96.25 8.72Q96.25 9.31 95.94 9.86L95.94 9.86L95.94 9.86Q95.62 10.40 95.02 10.75L95.02 10.75L95.02 10.75Q94.42 11.09 93.58 11.09L93.58 11.09L93.58 11.09Q93.13 11.09 92.58 10.92L92.58 10.92L92.58 10.92Q92.04 10.75 92.04 10.43L92.04 10.43L92.04 10.43Q92.04 10.32 92.10 10.22L92.10 10.22L92.10 10.22Q92.16 10.12 92.25 10.12L92.25 10.12L92.25 10.12Q92.29 10.12 92.53 10.21L92.53 10.21L92.53 10.21Q92.76 10.30 93.14 10.30L93.14 10.30L93.14 10.30Q93.98 10.30 94.45 9.83L94.45 9.83L94.45 9.83Q94.92 9.35 94.92 8.71L94.92 8.71L94.92 8.71Q94.92 8.16 94.57 7.76L94.57 7.76L94.57 7.76Q94.22 7.36 93.59 7.36L93.59 7.36L93.59 7.36Q92.69 7.36 92.19 8.16L92.19 8.16L92.19 8.16Q91.69 8.95 91.69 10.42L91.69 10.42L91.69 10.42Q91.69 11.66 92.22 12.37L92.22 12.37L92.22 12.37Q92.75 13.08 93.76 13.08L93.76 13.08L93.76 13.08Q94.99 13.08 95.80 12.28L95.80 12.28L95.80 12.28Q95.86 12.22 95.93 12.22L95.93 12.22L95.93 12.22Q96.04 12.22 96.17 12.36L96.17 12.36L96.17 12.36Q96.29 12.49 96.29 12.63L96.29 12.63L96.29 12.63Q96.29 12.70 96.24 12.75L96.24 12.75ZM103.64 12.75L103.64 12.75Q103.12 13.36 102.41 13.68L102.41 13.68L102.41 13.68Q101.70 14 100.87 14L100.87 14L100.87 14Q99.90 14 99.18 13.55L99.18 13.55L99.18 13.55Q98.45 13.10 98.05 12.29L98.05 12.29L98.05 12.29Q97.65 11.48 97.65 10.42L97.65 10.42L97.65 10.42Q97.65 9.30 98.10 8.45L98.10 8.45L98.10 8.45Q98.55 7.60 99.37 7.13L99.37 7.13L99.37 7.13Q100.18 6.66 101.28 6.66L101.28 6.66L101.28 6.66Q102.05 6.66 102.59 6.95L102.59 6.95L102.59 6.95Q103.12 7.24 103.39 7.71L103.39 7.71L103.39 7.71Q103.66 8.18 103.66 8.72L103.66 8.72L103.66 8.72Q103.66 9.31 103.34 9.86L103.34 9.86L103.34 9.86Q103.03 10.40 102.42 10.75L102.42 10.75L102.42 10.75Q101.82 11.09 100.98 11.09L100.98 11.09L100.98 11.09Q100.53 11.09 99.99 10.92L99.99 10.92L99.99 10.92Q99.44 10.75 99.44 10.43L99.44 10.43L99.44 10.43Q99.44 10.32 99.51 10.22L99.51 10.22L99.51 10.22Q99.57 10.12 99.65 10.12L99.65 10.12L99.65 10.12Q99.69 10.12 99.93 10.21L99.93 10.21L99.93 10.21Q100.17 10.30 100.55 10.30L100.55 10.30L100.55 10.30Q101.39 10.30 101.86 9.83L101.86 9.83L101.86 9.83Q102.33 9.35 102.33 8.71L102.33 8.71L102.33 8.71Q102.33 8.16 101.98 7.76L101.98 7.76L101.98 7.76Q101.63 7.36 101.00 7.36L101.00 7.36L101.00 7.36Q100.10 7.36 99.60 8.16L99.60 8.16L99.60 8.16Q99.09 8.95 99.09 10.42L99.09 10.42L99.09 10.42Q99.09 11.66 99.62 12.37L99.62 12.37L99.62 12.37Q100.16 13.08 101.16 13.08L101.16 13.08L101.16 13.08Q102.40 13.08 103.21 12.28L103.21 12.28L103.21 12.28Q103.26 12.22 103.33 12.22L103.33 12.22L103.33 12.22Q103.45 12.22 103.57 12.36L103.57 12.36L103.57 12.36Q103.70 12.49 103.70 12.63L103.70 12.63L103.70 12.63Q103.70 12.70 103.64 12.75L103.64 12.75ZM107.28 11.56L107.28 11.56Q107.28 12.22 107.38 12.61L107.38 12.61L107.38 12.61Q107.48 13.01 107.73 13.37L107.73 13.37L107.90 13.59L107.73 13.80L105.28 13.80L105.13 13.37L105.42 13.30L105.42 13.30Q105.77 13.22 105.89 13.00L105.89 13.00L105.89 13.00Q106.01 12.78 106.01 12.25L106.01 12.25L106.01 8.32L106.01 8.32Q106.01 8.15 105.95 8.08L105.95 8.08L105.95 8.08Q105.88 8.01 105.73 8.01L105.73 8.01L105.11 8.01L104.99 7.64L104.99 7.64Q105.39 7.28 105.92 7.04L105.92 7.04L105.92 7.04Q106.44 6.80 106.83 6.80L106.83 6.80L106.83 6.80Q107.03 6.80 107.16 6.93L107.16 6.93L107.16 6.93Q107.28 7.06 107.28 7.25L107.28 7.25L107.28 8.75L107.28 8.75Q107.65 7.84 108.37 7.25L108.37 7.25L108.37 7.25Q109.10 6.66 109.90 6.66L109.90 6.66L109.90 6.66Q110.88 6.66 111.33 7.27L111.33 7.27L111.33 7.27Q111.78 7.87 111.78 9.18L111.78 9.18L111.78 12.57L111.78 12.57Q111.78 13.05 112.20 13.05L112.20 13.05L112.20 13.05Q112.52 13.05 112.90 12.75L112.90 12.75L113.16 13.12L113.16 13.12Q112.80 13.52 112.38 13.76L112.38 13.76L112.38 13.76Q111.96 14 111.59 14L111.59 14L111.59 14Q111.02 14 110.77 13.65L110.77 13.65L110.77 13.65Q110.52 13.30 110.52 12.52L110.52 12.52L110.52 9.18L110.52 9.18Q110.52 7.76 109.31 7.76L109.31 7.76L109.31 7.76Q108.71 7.76 108.26 8.23L108.26 8.23L108.26 8.23Q107.80 8.71 107.54 9.58L107.54 9.58L107.54 9.58Q107.28 10.44 107.28 11.56L107.28 11.56ZM120.23 10.72L120.23 10.72Q120.23 11.83 120.93 12.47L120.93 12.47L120.93 12.47Q121.63 13.12 122.70 13.12L122.70 13.12L122.70 13.12Q123.76 13.12 124.46 12.47L124.46 12.47L124.46 12.47Q125.16 11.83 125.16 10.72L125.16 10.72L125.16 5.61L125.16 5.61Q125.16 4.97 124.98 4.72L124.98 4.72L124.98 4.72Q124.80 4.47 124.26 4.31L124.26 4.31L123.94 4.23L124.11 3.75L126.77 3.75L126.95 3.98L126.77 4.23L126.77 4.23Q126.42 4.69 126.28 5.21L126.28 5.21L126.28 5.21Q126.14 5.73 126.14 6.57L126.14 6.57L126.14 10.72L126.14 10.72Q126.14 12.38 125.13 13.19L125.13 13.19L125.13 13.19Q124.12 14 122.51 14L122.51 14L122.51 14Q120.88 14 119.86 13.19L119.86 13.19L119.86 13.19Q118.85 12.38 118.85 10.72L118.85 10.72L118.85 5.61L118.85 5.61Q118.85 4.97 118.66 4.72L118.66 4.72L118.66 4.72Q118.48 4.47 117.95 4.31L117.95 4.31L117.63 4.23L117.80 3.75L120.86 3.75L121.04 3.98L120.86 4.23L120.86 4.23Q120.51 4.69 120.37 5.21L120.37 5.21L120.37 5.21Q120.23 5.73 120.23 6.57L120.23 6.57L120.23 10.72ZM130.49 8.75L130.58 8.75L130.58 8.75Q130.82 7.81 131.31 7.24L131.31 7.24L131.31 7.24Q131.81 6.66 132.40 6.66L132.40 6.66L132.40 6.66Q132.99 6.66 133.37 7.05L133.37 7.05L133.37 7.05Q133.76 7.43 133.76 8.09L133.76 8.09L133.76 8.09Q133.76 8.62 133.36 8.99L133.36 8.99L133.36 8.99Q132.97 9.35 132.38 9.35L132.38 9.35L132.38 9.35Q132.12 9.35 132.12 9.20L132.12 9.20L132.12 9.20Q132.12 9.16 132.24 8.99L132.24 8.99L132.24 8.99Q132.36 8.82 132.43 8.64L132.43 8.64L132.43 8.64Q132.51 8.46 132.51 8.23L132.51 8.23L132.51 8.23Q132.51 7.98 132.38 7.83L132.38 7.83L132.38 7.83Q132.24 7.69 132.05 7.69L132.05 7.69L132.05 7.69Q131.71 7.69 131.36 8.09L131.36 8.09L131.36 8.09Q131.00 8.48 130.75 9.37L130.75 9.37L130.75 9.37Q130.49 10.26 130.49 11.62L130.49 11.62L130.49 11.62Q130.49 12.25 130.59 12.63L130.59 12.63L130.59 12.63Q130.69 13.02 130.94 13.37L130.94 13.37L131.11 13.59L130.94 13.80L128.49 13.80L128.34 13.37L128.63 13.30L128.63 13.30Q128.98 13.22 129.10 13.00L129.10 13.00L129.10 13.00Q129.22 12.78 129.22 12.25L129.22 12.25L129.22 8.32L129.22 8.32Q129.22 8.15 129.16 8.08L129.16 8.08L129.16 8.08Q129.09 8.01 128.94 8.01L128.94 8.01L128.32 8.01L128.20 7.64L128.20 7.64Q128.60 7.28 129.13 7.04L129.13 7.04L129.13 7.04Q129.65 6.80 130.05 6.80L130.05 6.80L130.05 6.80Q130.24 6.80 130.37 6.93L130.37 6.93L130.37 6.93Q130.49 7.06 130.49 7.25L130.49 7.25L130.49 8.75ZM136.61 11.56L136.61 11.56Q136.61 12.22 136.71 12.61L136.71 12.61L136.71 12.61Q136.81 13.01 137.06 13.37L137.06 13.37L137.23 13.59L137.06 13.80L134.61 13.80L134.46 13.37L134.75 13.30L134.75 13.30Q135.10 13.22 135.22 13.00L135.22 13.00L135.22 13.00Q135.34 12.78 135.34 12.25L135.34 12.25L135.34 8.32L135.34 8.32Q135.34 8.15 135.28 8.08L135.28 8.08L135.28 8.08Q135.21 8.01 135.06 8.01L135.06 8.01L134.44 8.01L134.32 7.64L134.32 7.64Q134.72 7.28 135.25 7.04L135.25 7.04L135.25 7.04Q135.77 6.80 136.16 6.80L136.16 6.80L136.16 6.80Q136.36 6.80 136.49 6.93L136.49 6.93L136.49 6.93Q136.61 7.06 136.61 7.25L136.61 7.25L136.61 8.75L136.61 8.75Q136.98 7.84 137.70 7.25L137.70 7.25L137.70 7.25Q138.43 6.66 139.23 6.66L139.23 6.66L139.23 6.66Q140.21 6.66 140.66 7.27L140.66 7.27L140.66 7.27Q141.11 7.87 141.11 9.18L141.11 9.18L141.11 12.57L141.11 12.57Q141.11 13.05 141.53 13.05L141.53 13.05L141.53 13.05Q141.85 13.05 142.23 12.75L142.23 12.75L142.49 13.12L142.49 13.12Q142.13 13.52 141.71 13.76L141.71 13.76L141.71 13.76Q141.29 14 140.92 14L140.92 14L140.92 14Q140.35 14 140.10 13.65L140.10 13.65L140.10 13.65Q139.85 13.30 139.85 12.52L139.85 12.52L139.85 9.18L139.85 9.18Q139.85 7.76 138.64 7.76L138.64 7.76L138.64 7.76Q138.04 7.76 137.59 8.23L137.59 8.23L137.59 8.23Q137.13 8.71 136.87 9.58L136.87 9.58L136.87 9.58Q136.61 10.44 136.61 11.56L136.61 11.56ZM144.06 4.59L144.06 4.59Q144.06 4.33 144.36 4.00L144.36 4.00L144.36 4.00Q144.66 3.67 144.91 3.67L144.91 3.67L144.91 3.67Q145.18 3.67 145.49 3.99L145.49 3.99L145.49 3.99Q145.80 4.31 145.80 4.59L145.80 4.59L145.80 4.59Q145.80 4.86 145.49 5.18L145.49 5.18L145.49 5.18Q145.18 5.50 144.91 5.50L144.91 5.50L144.91 5.50Q144.68 5.50 144.37 5.18L144.37 5.18L144.37 5.18Q144.06 4.86 144.06 4.59L144.06 4.59ZM145.54 12.57L145.54 12.57Q145.54 13.05 145.96 13.05L145.96 13.05L145.96 13.05Q146.31 13.05 146.66 12.75L146.66 12.75L146.93 13.12L146.93 13.12Q146.57 13.52 146.15 13.76L146.15 13.76L146.15 13.76Q145.73 14 145.36 14L145.36 14L145.36 14Q144.79 14 144.54 13.65L144.54 13.65L144.54 13.65Q144.28 13.30 144.28 12.52L144.28 12.52L144.28 8.18L144.28 8.18Q144.28 8.01 144.22 7.94L144.22 7.94L144.22 7.94Q144.16 7.87 144.00 7.87L144.00 7.87L143.39 7.87L143.26 7.50L143.26 7.50Q143.67 7.14 144.19 6.90L144.19 6.90L144.19 6.90Q144.70 6.66 145.11 6.66L145.11 6.66L145.11 6.66Q145.31 6.66 145.43 6.79L145.43 6.79L145.43 6.79Q145.56 6.92 145.56 7.11L145.56 7.11L145.54 12.57ZM150.51 13.31L150.51 13.31Q151.09 13.31 151.46 13.00L151.46 13.00L151.46 13.00Q151.83 12.68 151.83 12.18L151.83 12.18L151.83 12.18Q151.83 11.73 151.45 11.45L151.45 11.45L151.45 11.45Q151.06 11.17 150.30 10.85L150.30 10.85L150.30 10.85Q149.62 10.57 149.16 10.30L149.16 10.30L149.16 10.30Q148.71 10.04 148.39 9.61L148.39 9.61L148.39 9.61Q148.06 9.18 148.06 8.55L148.06 8.55L148.06 8.55Q148.06 7.71 148.79 7.19L148.79 7.19L148.79 7.19Q149.51 6.66 150.61 6.66L150.61 6.66L150.61 6.66Q151.61 6.66 152.26 7.06L152.26 7.06L152.26 7.06Q152.92 7.45 152.92 8.11L152.92 8.11L152.92 8.11Q152.92 8.64 152.59 8.98L152.59 8.98L152.59 8.98Q152.26 9.32 151.75 9.32L151.75 9.32L151.75 9.32Q151.45 9.32 151.45 9.14L151.45 9.14L151.45 9.14Q151.45 9.09 151.56 8.86L151.56 8.86L151.56 8.86Q151.66 8.62 151.66 8.36L151.66 8.36L151.66 8.36Q151.66 7.84 151.31 7.59L151.31 7.59L151.31 7.59Q150.96 7.34 150.51 7.34L150.51 7.34L150.51 7.34Q149.94 7.34 149.61 7.62L149.61 7.62L149.61 7.62Q149.28 7.91 149.28 8.36L149.28 8.36L149.28 8.36Q149.28 8.88 149.70 9.19L149.70 9.19L149.70 9.19Q150.11 9.51 150.92 9.84L150.92 9.84L150.92 9.84Q151.59 10.12 152.04 10.37L152.04 10.37L152.04 10.37Q152.49 10.61 152.80 10.99L152.80 10.99L152.80 10.99Q153.10 11.37 153.10 11.90L153.10 11.90L153.10 11.90Q153.10 12.85 152.35 13.43L152.35 13.43L152.35 13.43Q151.59 14 150.33 14L150.33 14L150.33 14Q149.27 14 148.58 13.52L148.58 13.52L148.58 13.52Q147.90 13.05 147.90 12.25L147.90 12.25L147.90 12.25Q147.90 11.77 148.22 11.47L148.22 11.47L148.22 11.47Q148.54 11.16 149.06 11.16L149.06 11.16L149.06 11.16Q149.35 11.16 149.35 11.33L149.35 11.33L149.35 11.33Q149.35 11.37 149.27 11.59L149.27 11.59L149.27 11.59Q149.18 11.80 149.18 12.11L149.18 12.11L149.18 12.11Q149.18 12.70 149.60 13.01L149.60 13.01L149.60 13.01Q150.01 13.31 150.51 13.31L150.51 13.31ZM155.39 4.37L155.39 4.37Q155.39 4.20 155.32 4.13L155.32 4.13L155.32 4.13Q155.26 4.06 155.11 4.06L155.11 4.06L154.49 4.06L154.36 3.70L154.36 3.70Q154.77 3.33 155.30 3.09L155.30 3.09L155.30 3.09Q155.82 2.86 156.21 2.86L156.21 2.86L156.21 2.86Q156.41 2.86 156.53 2.98L156.53 2.98L156.53 2.98Q156.66 3.11 156.66 3.30L156.66 3.30L156.66 8.75L156.66 8.75Q157.02 7.84 157.75 7.25L157.75 7.25L157.75 7.25Q158.48 6.66 159.28 6.66L159.28 6.66L159.28 6.66Q160.30 6.66 160.73 7.27L160.73 7.27L160.73 7.27Q161.15 7.87 161.15 9.21L161.15 9.21L161.15 12.60L161.15 12.60Q161.15 13.08 161.57 13.08L161.57 13.08L161.57 13.08Q161.92 13.08 162.27 12.78L162.27 12.78L162.54 13.15L162.54 13.15Q162.18 13.55 161.76 13.79L161.76 13.79L161.76 13.79Q161.34 14.03 160.97 14.03L160.97 14.03L160.97 14.03Q160.40 14.03 160.15 13.68L160.15 13.68L160.15 13.68Q159.89 13.33 159.89 12.54L159.89 12.54L159.89 9.21L159.89 9.21Q159.89 8.47 159.62 8.11L159.62 8.11L159.62 8.11Q159.35 7.76 158.69 7.76L158.69 7.76L158.69 7.76Q158.09 7.76 157.63 8.23L157.63 8.23L157.63 8.23Q157.18 8.71 156.92 9.58L156.92 9.58L156.92 9.58Q156.66 10.44 156.66 11.56L156.66 11.56L156.66 11.56Q156.66 12.22 156.76 12.61L156.76 12.61L156.76 12.61Q156.86 13.01 157.11 13.37L157.11 13.37L157.28 13.59L157.11 13.80L154.66 13.80L154.50 13.37L154.80 13.30L154.80 13.30Q155.15 13.22 155.27 13.00L155.27 13.00L155.27 13.00Q155.39 12.78 155.39 12.25L155.39 12.25L155.39 4.37ZM168.43 12.52L168.43 12.52Q167.86 13.33 167.26 13.66L167.26 13.66L167.26 13.66Q166.66 14 165.96 14L165.96 14L165.96 14Q165.28 14 164.71 13.62L164.71 13.62L164.71 13.62Q164.14 13.23 163.79 12.46L163.79 12.46L163.79 12.46Q163.45 11.69 163.45 10.60L163.45 10.60L163.45 10.60Q163.45 9.39 163.89 8.50L163.89 8.50L163.89 8.50Q164.33 7.62 165.15 7.14L165.15 7.14L165.15 7.14Q165.97 6.66 167.08 6.66L167.08 6.66L167.08 6.66Q167.62 6.66 168.62 6.85L168.62 6.85L168.62 6.85Q169.46 6.99 169.88 7.01L169.88 7.01L170.03 7.20L169.86 7.45L169.86 7.45Q169.76 7.59 169.72 7.71L169.72 7.71L169.72 7.71Q169.68 7.83 169.68 7.99L169.68 7.99L169.68 12.57L169.68 12.57Q169.68 13.01 170.10 13.01L170.10 13.01L170.10 13.01Q170.45 13.01 170.80 12.75L170.80 12.75L171.07 13.12L171.07 13.12Q170.70 13.52 170.28 13.76L170.28 13.76L170.28 13.76Q169.86 14 169.51 14L169.51 14L169.51 14Q168.94 14 168.69 13.65L168.69 13.65L168.69 13.65Q168.43 13.30 168.43 12.52L168.43 12.52ZM164.92 10.33L164.92 10.33Q164.92 11.66 165.38 12.29L165.38 12.29L165.38 12.29Q165.83 12.92 166.52 12.92L166.52 12.92L166.52 12.92Q167.08 12.92 167.57 12.61L167.57 12.61L167.57 12.61Q168.06 12.29 168.43 11.65L168.43 11.65L168.43 7.87L168.43 7.87Q167.79 7.43 167.06 7.43L167.06 7.43L167.06 7.43Q166.04 7.43 165.48 8.20L165.48 8.20L165.48 8.20Q164.92 8.96 164.92 10.33L164.92 10.33ZM172.27 14.69L171.28 14.69L175.46 2.87L176.47 2.87L172.27 14.69ZM183.78 8.27L183.78 9.34L177.86 11.73L177.86 10.67L182.59 8.81L177.86 6.94L177.86 5.88L183.78 8.27Z"></path></g><!----><g data-v-423bf9ae="" id="0d10b843-11a9-487f-b7e5-32f091c67e9a" transform="matrix(1.1145512942006575,0,0,1.1145512942006575,407.8930964719631,-11.168423288242401)" stroke="none" fill="black"><path d="M80.6 45.1v-1c0-6.9-5.3-12.4-11.8-12.4-6.5 0-11.8 5.6-11.8 12.4 0 6.9 5.3 12.4 11.8 12.4 3.1 0 6-1.3 8.1-3.4.5 2.7 1.8 7.4 5.9 9.1 4.5 1.9 4.6 5.3 4.6 5.3 6.5-9.7-2.2-22.6-6.8-22.4zm-11.7 9.3c-5.4 0-9.7-4.7-9.7-10.4 0-3.8 1.9-7.1 4.8-8.9 0 7.1 5.8 12.3 13.1 13.2-.2.5-.3 1.1-.3 1.8-1.8 2.6-4.7 4.3-7.9 4.3z"></path><path d="M83.3 67.5c-4.7-6.5-13.5-10.2-21.5-7.9-1.2.3-10.1 6.9-10.1 6.9S46 62 42 57.9v.1c-.2-.7-.8-1.2-1.6-1.3-2.6-.1-6 .2-9.4-.2-1.4-.2-1.6.9-.8 1.5 2.8 1.8 5.8 3.3 9.9 2.7 1.2 1.3 4.8 5.9 7.8 8.8 3 3 3.2 3.2 5.2 2.4 2-.8 5.5-3 7.2-3.9-.2 6.2.1 12.4 2.1 18.2 1 2.9 6.2 1.7 8.5 1.2 1.6-.3 3.3-.7 4.7-1.5 1.5-.8 2.2-1.6 1.6-3.3-1.1-3.1-3.1-8.9-.8-13.6.9.7 1.8 1.5 2.8 2.6 4.8 5.1 4.9 10.3 4.7 17.1-.1 3 4.5 3 4.6 0 .2-8-.4-14.5-5.2-21.2zM46.7 45.4c-.7 0-2.2-.4-4.6-1.1-1.4-.4-3.3-1-3.8-1-2 .5-3.1.6-4.9.7-.4 0-.9.1-1.5.1s-1.2.1-1.9.1c-5.3 0-10.8-1.6-14.4-4.2-4.1-2.8-6.4-7.2-6.8-12.9 0-3.4 1.4-9.7 11.2-14.3 3.9-1.7 7.8-2.6 11.9-2.6 1.6 0 3.3.1 5.1.4 5.7.8 10.6 3 13.9 6.2 3 2.9 4.7 6.4 4.8 10.1.3 6.3-3.1 11.4-9.3 14 .1.4.4 1.1.6 1.6.6 1.4 1.1 2.5.1 3 0-.2-.2-.1-.4-.1zm-8.4-3.8c.7 0 2.1.4 4.3 1.1 1 .3 2.3.7 3.2.9-.1-.2-.2-.4-.2-.5-.6-1.5-1-2.4-.7-3.1.1-.3.3-.5.6-.6 5.7-2.3 8.9-6.9 8.6-12.6-.1-8.3-9-13.4-17.2-14.6-1.7-.2-3.3-.4-4.8-.4-3.9 0-7.5.8-11.2 2.4C17.1 16 10.6 20.1 10.7 27c.4 5.2 2.4 9.1 6.1 11.6 3.3 2.4 8.4 3.8 13.4 3.8.6 0 1.2 0 1.8-.1.6 0 1-.1 1.5-.1 1.7-.1 2.7-.2 4.6-.7 0 .1.1.1.2.1z"></path><path d="M22.6 26.4c-.5 0-.9-.4-.9-.9v-5.2c-.3.3-.9.3-1.2 0-.3-.3-.3-.9 0-1.2l.8-.8c.2-.2.4-.3.6-.3h.7c.5 0 .9.4.9.9v6.6c-.1.5-.5.9-.9.9zM29.4 26.4c-.5 0-.9-.4-.9-.9v-5.2c-.3.3-.9.3-1.2 0-.3-.3-.3-.9 0-1.2l.8-.8c.2-.2.4-.3.6-.3h.7c.5 0 .9.4.9.9v6.6c0 .5-.4.9-.9.9zM35.6 26.4c-.5 0-.9-.4-.9-.9v-5.2c-.3.3-.9.3-1.2 0-.3-.3-.3-.9 0-1.2l.8-.8c.2-.2.4-.3.6-.3h.7c.5 0 .9.4.9.9v6.6c0 .5-.4.9-.9.9zM41.3 26.4c-1.5 0-2.8-1.3-2.8-2.8v-2.7c0-1.5 1.3-2.8 2.8-2.8 1.5 0 2.8 1.3 2.8 2.8v2.7c0 1.5-1.3 2.8-2.8 2.8zm0-6.6c-.6 0-1.1.5-1.1 1.1v2.7c0 .6.5 1.1 1.1 1.1.6 0 1.1-.5 1.1-1.1v-2.7c0-.6-.5-1.1-1.1-1.1zM35.6 36.6c-.5 0-.9-.4-.9-.9v-5.2c-.3.3-.9.3-1.2 0-.3-.3-.3-.9 0-1.2l.8-.8c.2-.2.4-.3.6-.3h.7c.5 0 .9.4.9.9v6.6c0 .6-.4.9-.9.9zM41.3 36.6c-1.5 0-2.8-1.3-2.8-2.8v-2.7c0-1.5 1.3-2.8 2.8-2.8 1.5 0 2.8 1.3 2.8 2.8v2.7c0 1.6-1.3 2.8-2.8 2.8zm0-6.6c-.6 0-1.1.5-1.1 1.1v2.7c0 .6.5 1.1 1.1 1.1.6 0 1.1-.5 1.1-1.1v-2.7c0-.6-.5-1.1-1.1-1.1zM22.5 36.6c-1.5 0-2.8-1.3-2.8-2.8v-2.7c0-1.5 1.3-2.8 2.8-2.8s2.8 1.3 2.8 2.8v2.7c0 1.6-1.3 2.8-2.8 2.8zm0-6.6c-.6 0-1.1.5-1.1 1.1v2.7c0 .6.5 1.1 1.1 1.1s1.1-.5 1.1-1.1v-2.7c0-.6-.5-1.1-1.1-1.1zM29.3 36.6c-1.5 0-2.8-1.3-2.8-2.8v-2.7c0-1.5 1.3-2.8 2.8-2.8s2.8 1.3 2.8 2.8v2.7c0 1.6-1.2 2.8-2.8 2.8zm0-6.6c-.6 0-1.1.5-1.1 1.1v2.7c0 .6.5 1.1 1.1 1.1s1.1-.5 1.1-1.1v-2.7c0-.6-.5-1.1-1.1-1.1z"></path></g><!----></svg>